<svg width="38" height="30" viewBox="0 0 38 30" fill="none" xmlns="http://www.w3.org/2000/svg">
<path d="M1.81274 7.31493L1.78774 7.29911L6.38227 1.88424L6.38281 1.8836C6.96498 1.19513 7.91645 0.765625 8.93068 0.765625H29.0973C30.1158 0.765625 31.069 1.19906 31.6535 1.89397L31.6539 1.89445L36.2286 7.3194L36.2062 7.33463L36.5607 7.75783C36.7416 7.97379 36.8327 8.1824 36.8327 8.39225V26.2672C36.8327 27.7285 35.4704 29.0172 33.666 29.0172H4.33268C2.52826 29.0172 1.16602 27.7285 1.16602 26.2672V8.39225C1.16602 8.18143 1.25833 7.97014 1.44188 7.75322L1.81274 7.31493ZM8.93068 3.01725H8.69918L8.54941 3.19378L5.79208 6.44378L5.09344 7.26725H6.17335H31.8382H32.9139L32.2204 6.44491L29.4796 3.19491L29.3297 3.01725H29.0973H8.93068ZM3.83268 26.2672V26.7672H4.33268H33.6697H34.1698L34.1697 26.2671L34.166 10.0171L34.1659 9.51725H33.666H4.33268H3.83268V10.0173V26.2672Z" fill="#2A2A32" stroke="#2A2A32"/>
</svg>
